<?xml version="1.0" encoding="utf-8"?>
<!-- Generator: Adobe Illustrator 22.0.1, SVG Export Plug-In . SVG Version: 6.00 Build 0)  -->
<svg version="1.1" id="Layer_1" xmlns="http://www.w3.org/2000/svg" xmlns:xlink="http://www.w3.org/1999/xlink" x="0px" y="0px"
	 viewBox="0 0 36 36" style="enable-background:new 0 0 36 36;" xml:space="preserve">
<style type="text/css">
	.st0{fill:#4E8282;}
	.st1{fill:#2C4948;}
</style>
<g>
	<path class="st0" d="M20.7,24.8c0-3.9-2.2-6.4-5.5-6.4c-2.6,0-4.7,2-4.7,4.9c0,2.7,1.7,3.9,3.9,3.9c1.7,0,2.4-0.9,2.8-1.9v0.3
		c0,1.1-0.1,2.3-0.2,3.4l3.3-1.3C20.6,26.7,20.7,25.7,20.7,24.8z M15.9,26.6c-0.2,0.1-0.5,0.2-0.7,0.2c-0.6,0-1-0.5-1.2-1.2
		c-0.2-0.9-0.2-1.7-0.2-2.6c0-1.3,0-3.2,0.4-3.9c0.2-0.5,0.7-0.7,1.2-0.7c1.1,0,1.8,1.1,1.8,4.5C17.2,24.2,17,25.9,15.9,26.6z"/>
	<path class="st0" d="M13.3,28.2c-1.1,0-1.7,0.7-1.7,1.8c0,0.3,0.1,0.7,0.2,1l3.3-1.3C15,29.2,14.6,28.2,13.3,28.2z"/>
	<path class="st0" d="M24.9,25.5c0-1.6,0.1-3.6,0.1-3.6c0-0.6,0.1-3.5,1.6-3.5c1.4,0,1.5,2,1.5,3.5c0,0,0.1,1.1,0.1,2.5l3.3-1.3
		c-0.6-2.7-2.2-4.8-4.9-4.8c-3.5,0-5.2,3.6-5.2,7.2c0,0.5,0,1.1,0.1,1.6l3.4-1.4L24.9,25.5z"/>
	<path class="st0" d="M5.6,15.3c0,1.7-0.2,2.2-1.9,2.2v0.1H11v-0.1c-1.7,0-1.9-0.5-1.9-2.2v-1.4L5.6,15.3L5.6,15.3z"/>
	<path class="st0" d="M17.6,10.5v0.3c0,1.8-0.2,4.7-0.9,6c-0.4,0.6-1.1,0.9-1.8,0.9c-1,0-1.6-0.5-1.7-1c0.2,0.1,0.4,0.1,0.6,0.1
		c0.9,0,1.7-0.7,1.7-1.6c0,0,0,0,0,0c0-0.5-0.4-1.6-1.8-1.6c-1.1,0-1.8,0.7-1.8,1.8c0,1.3,1.1,2.5,3,2.5c3.6,0,6.2-3.7,6.2-7.7
		c0-0.3,0-0.6,0-0.9l-3.8,1.5c-0.2,0.5-0.5,1-0.9,1.3c-0.2,0.1-0.5,0.2-0.7,0.2c-0.3,0-0.7-0.2-0.9-0.5l-1.3,0.5
		c0.5,0.1,0.9,0.2,1.4,0.2C16.5,12.3,17.2,11.4,17.6,10.5z"/>
	<path class="st1" d="M6.9,14.2V3.8C5.7,5,3.4,5.9,2.2,6.2v0.1c1.1,0,1.4,0.3,1.4,1.8v7.6L6.9,14.2z"/>
	<path class="st1" d="M12.3,11.2c-0.2-0.9-0.2-1.7-0.2-2.6c0-1.3,0-3.2,0.4-3.9C12.7,4.3,13.2,4,13.7,4c1.1,0,1.8,1.1,1.8,4.5
		c0,0.8-0.1,1.6-0.3,2.4L19,9.4c-0.3-3.3-2.4-5.5-5.4-5.5c-2.6,0-4.7,2-4.7,4.9c0,2.1,1,3.3,2.5,3.7l1.3-0.5
		C12.5,11.7,12.4,11.5,12.3,11.2z"/>
	<path class="st1" d="M16.7,32.1c2.7,0,4.8-2.1,5.8-4.9l-3.3,1.3c-0.1,1-0.4,2-0.7,2.6C18,31.7,17.3,32,16.6,32c-1,0-1.6-0.5-1.7-1
		c0.2,0.1,0.4,0.1,0.6,0.1c0.9,0,1.7-0.7,1.7-1.6c0,0,0,0,0,0c0,0,0-0.1,0-0.1l-3.3,1.3C14.3,31.5,15.3,32.1,16.7,32.1z"/>
	<path class="st1" d="M28.7,32.2c3.5,0,5.1-3.4,5.1-7c0-0.8-0.1-1.6-0.2-2.4l-3.3,1.3c0,0.3,0,0.7,0,1.1c0,1-0.1,3.4-0.1,3.4
		c0,1.5-0.1,3.5-1.5,3.5s-1.6-2.4-1.6-3.5c0,0-0.1-1.9-0.1-3.2l-3.4,1.3C24.1,29.7,25.8,32.2,28.7,32.2z"/>
</g>
</svg>
