<svg xmlns="http://www.w3.org/2000/svg" viewBox="0 0 28 25.03"><defs><style>.cls-1{fill:#4e8280;}</style></defs><title>Asset 4</title><g id="Layer_2" data-name="Layer 2"><g id="Layer_1-2" data-name="Layer 1"><path class="cls-1" d="M9.12,1.68v-1A.71.71,0,0,0,8.41,0H3.8a.72.72,0,0,0-.72.72v1H0V4.19H3.08V5.33a.72.72,0,0,0,.72.72H8.41a.72.72,0,0,0,.71-.72V4.19H28V1.68ZM17,10.16a.71.71,0,0,0-.71-.71H11.7a.71.71,0,0,0-.72.71v1.05H0v2.52H11v1a.72.72,0,0,0,.72.72h4.61a.71.71,0,0,0,.71-.72v-1H28V11.21H17Zm7.9,9.54A.72.72,0,0,0,24.2,19H19.59a.72.72,0,0,0-.72.72v1.05H0v2.51H18.87v1a.72.72,0,0,0,.72.72H24.2a.72.72,0,0,0,.72-.72v-1H28V20.75H24.92Z"/></g></g></svg>