<svg xmlns="http://www.w3.org/2000/svg" viewBox="0 0 28 28"><defs><style>.cls-1{fill:#fff;opacity:0.99;}</style></defs><title>Asset 7</title><g id="Layer_2" data-name="Layer 2"><g id="Layer_1-2" data-name="Layer 1"><circle class="cls-1" cx="14" cy="14.06" r="3.39"/><path class="cls-1" d="M21.05,7.43a3.43,3.43,0,0,0-2.56-1.17c-1.18-.11-2.35-.11-3.42-.11H11.65a15.35,15.35,0,0,0-2.24.11,3.27,3.27,0,0,0-2,.85A3.41,3.41,0,0,0,6.21,9.68c-.11,1.17-.11,2.24-.11,3.42v3.41a15.42,15.42,0,0,0,.11,2.25,2.7,2.7,0,0,0,.85,1.92,3.39,3.39,0,0,0,2.56,1.17C10.8,22,11.87,22,13,22h3.42A22.08,22.08,0,0,0,19,21.75a3.07,3.07,0,0,0,2.78-2.46A6.08,6.08,0,0,0,22,17.9V11.6a16,16,0,0,0-.1-2.24A3.2,3.2,0,0,0,21.05,7.43ZM14.11,19.36a5.35,5.35,0,0,1-5.3-5.19A5.28,5.28,0,0,1,14,8.86a5.21,5.21,0,0,1,5.31,5.2A5.28,5.28,0,0,1,14.11,19.36ZM20.77,8.64A1.24,1.24,0,1,1,19.53,7.4a1.16,1.16,0,0,1,1.24,1.13Z"/><path class="cls-1" d="M0,0V28H28V0ZM24.27,10.67v6.89a7.08,7.08,0,0,1-.34,2.25,5.26,5.26,0,0,1-3.16,3.73A8.32,8.32,0,0,1,18,24.1H10.39A17.26,17.26,0,0,1,8,23.88a5,5,0,0,1-3.73-3.16,7.88,7.88,0,0,1-.56-2.83V10.56A17.26,17.26,0,0,1,4,8.19,5.26,5.26,0,0,1,7.11,4.46,8.38,8.38,0,0,1,9.94,3.9h7.67A17.26,17.26,0,0,1,20,4.12a5.12,5.12,0,0,1,3.73,3.05A7.83,7.83,0,0,1,24.27,10Z"/></g></g></svg>