<?xml version="1.0" encoding="utf-8"?>
<!-- Generator: Adobe Illustrator 22.0.1, SVG Export Plug-In . SVG Version: 6.00 Build 0)  -->
<svg version="1.1" id="Layer_1" xmlns="http://www.w3.org/2000/svg" xmlns:xlink="http://www.w3.org/1999/xlink" x="0px" y="0px"
	 viewBox="0 0 28 28" style="enable-background:new 0 0 28 28;" xml:space="preserve">
<style type="text/css">
	.st0{opacity:0.99;fill:#2C413E;enable-background:new    ;}
</style>
<title>Asset 10</title>
<g id="Layer_2_1_">
	<g id="Layer_1-2">
		<circle class="st0" cx="14" cy="14.1" r="3.4"/>
		<path class="st0" d="M21,7.4c-0.6-0.7-1.6-1.2-2.6-1.2c-1.2-0.1-2.4-0.1-3.4-0.1h-3.4c-0.7,0-1.5,0-2.2,0.1c-0.7,0-1.4,0.3-2,0.8
			C6.7,7.8,6.2,8.7,6.2,9.7c-0.1,1.2-0.1,2.2-0.1,3.4v3.4c0,0.8,0,1.5,0.1,2.2c0,0.7,0.3,1.4,0.8,1.9c0.6,0.7,1.6,1.2,2.6,1.2
			C10.8,22,11.9,22,13,22h3.4c0.9,0,1.7-0.1,2.6-0.2c1.4-0.1,2.5-1.1,2.8-2.5c0.1-0.5,0.2-0.9,0.2-1.4v-6.3c0-0.7,0-1.5-0.1-2.2
			C21.8,8.6,21.5,8,21,7.4z M14.1,19.4c-2.9,0-5.2-2.3-5.3-5.2c0-2.9,2.3-5.3,5.2-5.3c2.9-0.1,5.3,2.2,5.3,5.1c0,0,0,0.1,0,0.1
			C19.3,17,17,19.3,14.1,19.4z M20.8,8.6c0,0.7-0.6,1.2-1.2,1.2s-1.2-0.6-1.2-1.2c0-0.7,0.6-1.2,1.2-1.2l0,0c0.6,0,1.2,0.4,1.2,1.1
			c0,0,0,0,0,0.1V8.6z"/>
		<path class="st0" d="M0,0v28h28V0H0z M24.3,10.7v6.9c0,0.8-0.1,1.5-0.3,2.2c-0.4,1.7-1.6,3.1-3.2,3.7c-0.9,0.3-1.8,0.5-2.8,0.6
			h-7.6c-0.8,0-1.6-0.1-2.4-0.2c-1.7-0.3-3.1-1.5-3.7-3.2c-0.4-0.9-0.5-1.9-0.6-2.8v-7.3C3.8,9.8,3.8,9,4,8.2
			c0.4-1.7,1.5-3.1,3.1-3.7C8,4.1,9,3.9,9.9,3.9h7.7c0.8,0,1.6,0.1,2.4,0.2c1.7,0.3,3.1,1.5,3.7,3.1c0.4,0.9,0.5,1.9,0.5,2.8V10.7z"
			/>
	</g>
</g>
</svg>
