<svg xmlns="http://www.w3.org/2000/svg" viewBox="0 0 28 28"><defs><style>.cls-1{fill:#fff;opacity:0.99;}</style></defs><title>Asset 5</title><g id="Layer_2" data-name="Layer 2"><g id="Layer_1-2" data-name="Layer 1"><path class="cls-1" d="M0,0V28H28V0ZM24.82,9.73a2.18,2.18,0,0,1,0,.25,2.28,2.28,0,0,1,0,.26c-.2,2.12-1.81,4.92-4.82,8.37q-4.68,5.46-7.76,5.32c-1.26-.07-2.27-1.29-3-3.67L8.45,17l-.72-3.24c-.54-2.35-1.19-3.54-1.92-3.58a6.07,6.07,0,0,0-1.74.92l-1-1.36L4.76,8.43,6.4,7.12A7.76,7.76,0,0,1,9.7,5.34H10c1.5.08,2.39,1.29,2.65,3.62.14,1.34.26,2.43.36,3.25s.18,1.41.26,1.74c.4,2.21.88,3.34,1.45,3.38s1.16-.65,2.15-2a8.9,8.9,0,0,0,1.6-3.17q0-.12,0-.21c0-.06,0-.13,0-.19a1.3,1.3,0,0,0-1.41-1.51,4.43,4.43,0,0,0-1.62.24q1.76-4.94,6.12-4.72h.24Q25,6,24.82,9.73Z"/></g></g></svg>