<?xml version="1.0" encoding="utf-8"?>
<!-- Generator: Adobe Illustrator 22.0.1, SVG Export Plug-In . SVG Version: 6.00 Build 0)  -->
<svg version="1.1" id="Layer_1" xmlns="http://www.w3.org/2000/svg" xmlns:xlink="http://www.w3.org/1999/xlink" x="0px" y="0px"
	 viewBox="0 0 28 28" style="enable-background:new 0 0 28 28;" xml:space="preserve">
<style type="text/css">
	.st0{opacity:0.99;fill:#2C413E;enable-background:new    ;}
</style>
<title>Asset 8</title>
<g id="Layer_2_1_">
	<g id="Layer_1-2">
		<path class="st0" d="M0,0v28h28V0H0z M24.8,9.7c0,0.1,0,0.2,0,0.2c0,0.1,0,0.2,0,0.3c-0.2,2.1-1.8,4.9-4.8,8.4
			c-3.1,3.6-5.7,5.4-7.8,5.3c-1.3-0.1-2.3-1.3-3-3.7L8.4,17l-0.7-3.2c-0.5-2.4-1.2-3.5-1.9-3.6c-0.6,0.2-1.2,0.5-1.7,0.9l-1-1.4
			l1.7-1.3l1.6-1.3c0.9-0.9,2.1-1.5,3.3-1.8H10c1.5,0.1,2.4,1.3,2.6,3.6c0.1,1.3,0.3,2.4,0.4,3.2s0.2,1.4,0.3,1.7
			c0.4,2.2,0.9,3.3,1.4,3.4s1.2-0.6,2.1-2c0.7-0.9,1.3-2,1.6-3.2c0-0.1,0-0.2,0-0.2c0-0.1,0-0.1,0-0.2c0.1-0.7-0.4-1.4-1.1-1.5
			c-0.1,0-0.2,0-0.3,0c-0.6,0-1.1,0.1-1.6,0.2c1.2-3.3,3.2-4.9,6.1-4.7h0.2C23.9,5.9,24.9,7.2,24.8,9.7z"/>
	</g>
</g>
</svg>
