<svg xmlns="http://www.w3.org/2000/svg" viewBox="0 0 108 29.97"><defs><style>.cls-1{fill:#2c4948;}.cls-2{fill:#4e8282;}</style></defs><title>Asset 2</title><g id="Layer_2" data-name="Layer 2"><g id="Layer_1-2" data-name="Layer 1"><path class="cls-1" d="M0,.09H3A3.75,3.75,0,0,1,7,3.83v0A3.77,3.77,0,0,1,3,7.61H0ZM3,6.12A2.15,2.15,0,0,0,5.22,3.87v0A2.17,2.17,0,0,0,3,1.58H1.67V6.12Z"/><path class="cls-1" d="M13.73,1.73l-1.31.32L12.08.69,14.24.05h1.13V7.62H13.73Z"/><path class="cls-1" d="M21.56.11h5.67V1.59h-4V3.11h3.55V4.59H23.2V6.16h4.08V7.64H21.55Z"/><path class="cls-1" d="M32.73,3.91v0a4,4,0,0,1,6.88-2.72l-1,1.22a2.76,2.76,0,0,0-1.92-.85,2.23,2.23,0,0,0-2.19,2.33v0a2.23,2.23,0,0,0,2.18,2.36,2.71,2.71,0,0,0,2-.88l1,1.07a3.85,3.85,0,0,1-3.08,1.34A3.79,3.79,0,0,1,32.73,3.91Z"/><path class="cls-1" d="M45.37.14H47V7.66H45.36Z"/><path class="cls-1" d="M53.21.15h1.52l3.52,4.63V.15h1.64V7.67H58.47L54.84,2.89V7.67H53.2Z"/><path class="cls-1" d="M65.87,4.46V.16h1.65V4.42c0,1.22.61,1.86,1.62,1.86s1.62-.61,1.62-1.8V.17h1.65V4.41c0,2.28-1.29,3.4-3.31,3.39A3,3,0,0,1,65.87,4.46Z"/><path class="cls-1" d="M78.42.18h5.67V1.65h-4V3.18h3.55V4.65H80.06V6.23h4.08V7.7H78.41Z"/><path class="cls-1" d="M89.28.19H91.1l2,5.3,2-5.3h1.78l-3,7.57H92.31Z"/><path class="cls-1" d="M102.28.2H108V1.68h-4V3.2h3.55V4.68h-3.55V6.25H108V7.73h-5.73Z"/><path class="cls-2" d="M0,11.72H1.53l3.52,4.63V11.72H6.69v7.52H5.27L1.64,14.46v4.78H0Z"/><path class="cls-2" d="M12.46,15.51v0a3.88,3.88,0,0,1,4-3.88,3.84,3.84,0,0,1,4,3.87v0a3.88,3.88,0,0,1-4,3.88A3.85,3.85,0,0,1,12.46,15.51Zm6.26,0v0a2.28,2.28,0,0,0-2.27-2.37,2.25,2.25,0,0,0-2.26,2.34v0a2.29,2.29,0,0,0,2.28,2.37A2.24,2.24,0,0,0,18.72,15.52Z"/><path class="cls-2" d="M25.11,11.75h1.82l2,5.3,2-5.3h1.79l-3,7.57H28.14Z"/><path class="cls-2" d="M38.11,11.76h5.67v1.47h-4v1.53H43.3v1.48H39.75v1.58h4.08v1.48H38.1Z"/><path class="cls-2" d="M49.61,11.77h1.53l5.15,6.68v.84H54.88l-3.64-4.78V19.3H49.6Z"/><path class="cls-2" d="M61.3,13.31H59V11.78h6.23v1.53H63v6H61.3Z"/><path class="cls-2" d="M72.43,11.75H74l3.22,7.57H75.44l-.69-1.68H71.57l-.69,1.69H69.2Zm1.73,4.42-1-2.44-1,2.44Z"/><path class="cls-1" d="M.65,26H3.47v.41H1.09v1.4H3.22v.41H1.09V29.9H.65Z"/><path class="cls-1" d="M4.92,26h.45V29.9H4.92Z"/><path class="cls-1" d="M7.08,26h.44v3.52H9.74v.41H7.08Z"/><path class="cls-1" d="M11.11,26h.45L13,28.11,14.42,26h.45V29.9h-.44V26.71L13,28.82h0l-1.43-2.1V29.9h-.43Z"/><path class="cls-1" d="M18.78,26h1.47c.89,0,1.47.47,1.47,1.24h0c0,.85-.7,1.29-1.54,1.29h-.95V29.9h-.45Zm1.42,2.14c.65,0,1.07-.35,1.07-.87h0c0-.56-.42-.85-1.05-.85h-1v1.73Z"/><path class="cls-1" d="M23.09,26h1.69a1.55,1.55,0,0,1,1.12.39,1.1,1.1,0,0,1,.3.78h0a1.15,1.15,0,0,1-1.07,1.14l1.21,1.61H25.8l-1.14-1.53H23.53V29.9h-.44Zm1.65,2c.59,0,1-.3,1-.81h0c0-.48-.37-.77-1-.77H23.53V28Z"/><path class="cls-1" d="M27.53,27.94h0a2,2,0,1,1,4,0h0a2,2,0,1,1-4,0Zm3.55,0h0a1.56,1.56,0,0,0-1.55-1.62A1.54,1.54,0,0,0,28,27.92h0a1.56,1.56,0,0,0,1.55,1.63A1.55,1.55,0,0,0,31.08,27.94Z"/><path class="cls-1" d="M33,26H34.4a2,2,0,0,1,2.09,2h0a2,2,0,0,1-2.09,2H33Zm1.37,3.52A1.53,1.53,0,0,0,36,27.94h0a1.53,1.53,0,0,0-1.63-1.55h-.92v3.11Z"/><path class="cls-1" d="M37.92,28.25V26h.44v2.25c0,.85.45,1.33,1.2,1.33s1.19-.44,1.19-1.3V26h.44v2.25a1.64,1.64,0,1,1-3.27,0Z"/><path class="cls-1" d="M42.62,27.94h0a2,2,0,0,1,2-2,2,2,0,0,1,1.53.62l-.3.33a1.68,1.68,0,0,0-1.23-.54,1.54,1.54,0,0,0-1.53,1.61h0a1.56,1.56,0,0,0,1.53,1.63A1.69,1.69,0,0,0,45.87,29l.3.28a2,2,0,0,1-1.58.7A2,2,0,0,1,42.62,27.94Z"/><path class="cls-1" d="M48.53,26.38H47.22V26H50.3v.41H49V29.9h-.45Z"/><path class="cls-1" d="M51.73,26h.44V29.9h-.44Z"/><path class="cls-1" d="M53.71,27.94h0a2,2,0,1,1,4,0h0a2,2,0,0,1-2,2A2,2,0,0,1,53.71,27.94Zm3.55,0h0a1.56,1.56,0,0,0-1.55-1.62,1.54,1.54,0,0,0-1.54,1.61h0a1.56,1.56,0,0,0,1.55,1.63A1.55,1.55,0,0,0,57.26,27.94Z"/><path class="cls-1" d="M59.21,26h.42l2.47,3.15V26h.44V29.9h-.36l-2.54-3.23V29.9h-.43Z"/></g></g></svg>