<svg xmlns="http://www.w3.org/2000/svg" viewBox="0 0 111.25 99.44"><defs><style>.cls-1{fill:#4e8282;}.cls-2{fill:#2c4948;}</style></defs><title>Asset 1</title><g id="Layer_2" data-name="Layer 2"><g id="Layer_1-2" data-name="Layer 1"><path class="cls-1" d="M65.15,73.48c0-13.55-7.75-22.63-19.23-22.63-9.28,0-16.49,7.08-16.49,17.09,0,9.35,6,13.75,13.62,13.75,5.81,0,8.28-3.13,9.75-6.54v.94A89.71,89.71,0,0,1,52,88l11.55-4.62A32.26,32.26,0,0,0,65.15,73.48ZM48.33,80a4.74,4.74,0,0,1-2.47.81c-1.94,0-3.61-1.81-4.28-4.28a40.82,40.82,0,0,1-.73-9.08c0-4.53.07-11.28,1.27-13.68a4.41,4.41,0,0,1,4.27-2.47c3.87,0,6.41,3.8,6.41,15.82C52.8,71.48,52.26,77.62,48.33,80Z"/><path class="cls-1" d="M39,85.57c-3.74,0-6.14,2.33-6.14,6.27a7.89,7.89,0,0,0,.82,3.49l11.51-4.59C45,89,43.63,85.57,39,85.57Z"/><path class="cls-1" d="M79.93,76c0-5.75.27-12.62.27-12.62.06-2.14.46-12.15,5.54-12.15s5.34,7.14,5.4,12.35c0,0,.21,4,.3,8.69l11.45-4.58c-2-9.36-7.7-17-17.15-17C73.59,50.69,67.65,63.3,67.65,76a39.9,39.9,0,0,0,.41,5.6l11.87-4.74Z"/><path class="cls-1" d="M12.23,40.14c0,5.94-.73,7.74-6.68,7.74v.4H31v-.4c-5.94,0-6.68-1.8-6.68-7.74V35.3L12.23,40.12Z"/><path class="cls-1" d="M54.35,23.32v.93c0,6.28-.66,16.62-3.33,20.9a7.24,7.24,0,0,1-6.28,3.13c-3.34,0-5.47-1.73-6.14-3.47a5.79,5.79,0,0,0,2,.27,5.94,5.94,0,0,0,6.14-5.88c0-1.6-1.26-5.47-6.2-5.47-3.74,0-6.15,2.34-6.15,6.28,0,4.6,3.94,8.67,10.55,8.67,12.48,0,21.76-13,21.76-27,0-1.11-.07-2.17-.17-3.22L53.19,23.77a8.3,8.3,0,0,1-3.31,4.42,4.67,4.67,0,0,1-2.47.8,3.91,3.91,0,0,1-3-1.71l-4.69,1.88a17,17,0,0,0,4.92.7C50.41,29.86,52.88,26.72,54.35,23.32Z"/><path class="cls-2" d="M16.82,36.55V0C12.42,4.21,4.41,7.14,0,8.14v.4c4,0,4.74,1,4.74,6.21V41.37Z"/><path class="cls-2" d="M35.65,26a40.23,40.23,0,0,1-.74-9.08c0-4.54.07-11.28,1.27-13.69A4.44,4.44,0,0,1,40.45.73c3.88,0,6.41,3.81,6.41,15.83A25.55,25.55,0,0,1,45.69,25L59,19.68C57.91,7.94,50.53.27,40,.27,30.71.27,23.5,7.34,23.5,17.36c0,7.21,3.55,11.47,8.7,13l4.69-1.87A7.19,7.19,0,0,1,35.65,26Z"/><path class="cls-2" d="M50.88,99.27c9.44,0,17-7.44,20.19-17.13L59.52,86.75c-.51,3.63-1.31,7-2.57,9a7.21,7.21,0,0,1-6.27,3.14c-3.34,0-5.48-1.74-6.14-3.47a5.79,5.79,0,0,0,2,.27,5.94,5.94,0,0,0,6.14-5.88c0-.09,0-.2,0-.3l-11.52,4.6C42.62,97.07,46,99.27,50.88,99.27Z"/><path class="cls-2" d="M93.23,99.44c12.15,0,18-12,18-24.7a39.29,39.29,0,0,0-.87-8.3L98.93,71c0,1.21,0,2.47,0,3.73,0,3.54-.34,12-.34,12-.13,5.4-.33,12.21-5.4,12.21s-5.48-8.28-5.54-12.21c0-.07-.24-6.68-.27-11.09L75.55,80.34C77.07,90.74,82.9,99.44,93.23,99.44Z"/></g></g></svg>